<svg width="170" height="30" viewBox="0 0 170 30" fill="none" xmlns="http://www.w3.org/2000/svg">
<path d="M26.3412 26.5114L33.7647 0H28.0973L23.7869 17.1685L19.7559 0H13.9289L10.2571 17.1685L5.90683 0H0L7.50326 26.5114H12.6917L16.8823 9.26302L20.9932 26.5114H26.3412Z" fill="black"/>
<path d="M36.8126 14.7729C37.0121 12.0579 38.7283 10.4608 40.8037 10.4608C42.8391 10.4608 44.7549 11.8583 44.8347 14.7729H36.8126ZM50.1828 18.0469C50.1828 10.2612 46.9899 6.34836 40.9633 6.34836C34.9368 6.34836 31.4645 10.2612 31.4645 16.3301C31.4645 23.437 34.7372 27.0304 41.2826 27.0304C45.4733 27.0304 48.706 24.7546 49.9034 20.722H44.5553C44.1961 22.0795 42.7194 22.918 41.0431 22.918C38.4888 22.918 36.8126 21.0015 36.6529 18.0469H50.1828Z" fill="black"/>
<path d="M56.4295 26.5114V21.1213H50.8818V26.5114H56.4295Z" fill="black"/>
<path d="M71.0415 7.62602C70.9667 8.41957 70.368 8.85377 69.6047 8.85377C68.8415 8.85377 68.168 8.0752 68.168 6.47313C68.168 4.87107 68.8415 4.34703 69.6646 4.34703C70.398 4.34703 70.9517 4.79621 71.0565 5.55981H73.0171C72.8974 3.82299 71.5953 2.73 69.6796 2.73C67.6142 2.73 66.2373 3.88288 66.2373 6.51805C66.2373 9.15322 67.6142 10.4858 69.6197 10.4858C71.4007 10.4858 72.7926 9.33289 73.0022 7.62602H71.0415Z" fill="black"/>
<path d="M77.1995 8.85377C76.0171 8.85377 75.4185 8.10514 75.4185 6.60789C75.4185 5.11063 76.0171 4.37698 77.1995 4.37698C78.3819 4.37698 78.9805 5.11063 78.9805 6.60789C78.9805 8.10514 78.3819 8.85377 77.1995 8.85377ZM77.1995 10.4858C79.4894 10.4858 80.9411 8.9436 80.9411 6.60789C80.9411 4.2572 79.5043 2.73 77.1995 2.73C74.8647 2.73 73.4129 4.27217 73.4129 6.60789C73.4129 8.89869 74.8198 10.4858 77.1995 10.4858Z" fill="black"/>
<path d="M88.3206 10.2911V5.18549C88.3206 3.58343 87.2879 2.73 85.8811 2.73C84.6987 2.73 83.9504 3.17917 83.5014 4.00266V2.92464H81.6455V10.2911H83.5912V6.06888C83.5912 4.94593 84.0851 4.37698 85.1028 4.37698C86.0307 4.37698 86.36 4.6914 86.36 5.82931V10.2911H88.3206Z" fill="black"/>
<path d="M95.4736 5.15555C95.3688 3.56846 94.411 2.73 92.2857 2.73C90.0407 2.73 89.1876 3.67327 89.1876 4.91599C89.1876 5.57478 89.4271 6.14374 90.1156 6.57794C90.6394 6.90734 91.3279 7.11695 92.5701 7.4164C93.1987 7.56613 93.7525 7.73083 93.7525 8.25487C93.7525 8.80885 93.1388 9.01847 92.4504 9.01847C91.5075 9.01847 90.9238 8.61421 90.9238 7.92547H88.9182C88.9482 9.42273 90.2054 10.4858 92.4653 10.4858C94.5607 10.4858 95.6831 9.57245 95.6831 8.04525C95.6831 7.08701 95.2491 6.57794 94.4708 6.26352C93.9021 6.03893 93.1089 5.87423 92.2708 5.63467C91.4775 5.41008 91.0734 5.23041 91.0734 4.79621C91.0734 4.362 91.4925 4.18233 92.2259 4.18233C93.1089 4.18233 93.498 4.43687 93.6028 5.15555H95.4736Z" fill="black"/>
<path d="M102.862 10.2911V2.92464H100.932V7.17684C100.932 8.15006 100.408 8.85377 99.42 8.85377C98.5968 8.85377 98.1778 8.40459 98.1778 7.47629V2.92464H96.2321V7.77575C96.2321 9.39278 97.2648 10.4858 98.7315 10.4858C99.7493 10.4858 100.513 10.0965 101.021 9.25803V10.2911H102.862Z" fill="black"/>
<path d="M105.661 10.2911V0.22958H103.715V10.2911H105.661Z" fill="black"/>
<path d="M110.654 7.35651C110.654 8.26984 110.294 8.79388 109.516 8.79388C108.723 8.79388 108.394 8.25487 108.394 7.32657V4.30211H112.464V2.92464H108.394V0.93329H106.478V7.52121C106.478 9.1083 107.331 10.4858 109.486 10.4858C111.566 10.4858 112.464 9.09333 112.464 7.53618V5.44003H110.654V7.35651Z" fill="black"/>
<path d="M116.881 8.85377C115.699 8.85377 115.1 8.10514 115.1 6.60789C115.1 5.11063 115.699 4.37698 116.881 4.37698C118.064 4.37698 118.663 5.11063 118.663 6.60789C118.663 8.10514 118.064 8.85377 116.881 8.85377ZM116.881 10.4858C119.171 10.4858 120.623 8.9436 120.623 6.60789C120.623 4.2572 119.186 2.73 116.881 2.73C114.547 2.73 113.095 4.27217 113.095 6.60789C113.095 8.89869 114.502 10.4858 116.881 10.4858Z" fill="black"/>
<path d="M123.273 10.2911V6.45816C123.273 5.27533 123.857 4.67643 125.054 4.67643C125.234 4.67643 125.413 4.6914 125.593 4.72135V2.73H125.339C124.545 2.73 123.797 2.81983 123.153 3.80802V2.92464H121.328V10.2911H123.273Z" fill="black"/>
<path d="M128.127 10.2911V2.92464H126.181V10.2911H128.127ZM128.127 2.04126V0.22958H126.181V2.04126H128.127Z" fill="black"/>
<path d="M133.475 7.49127C133.461 8.35968 132.712 9.09333 131.709 9.09333C131.096 9.09333 130.767 8.82382 130.767 8.26984C130.767 7.64099 131.126 7.32657 132.233 7.11695C132.952 6.9822 133.296 6.87739 133.49 6.68275L133.475 7.49127ZM135.436 10.2911V5.63467C135.436 3.77807 134.628 2.73 132.293 2.73C129.928 2.73 129.09 3.79305 129.06 5.32025H130.871C130.961 4.66145 131.32 4.22725 132.203 4.22725C132.967 4.22725 133.446 4.51173 133.446 4.99085C133.446 5.49992 133.176 5.69456 132.203 5.82931C130.243 6.09882 128.821 6.33838 128.821 8.46448C128.821 9.66229 129.599 10.4858 131.275 10.4858C132.263 10.4858 133.041 10.1414 133.505 9.63234C133.52 9.85693 133.565 10.1115 133.625 10.2911H135.436Z" fill="black"/>
<path d="M144.828 7.26668C144.828 8.41957 144.334 9.03344 143.332 9.03344C142.194 9.03344 141.685 8.31476 141.685 7.49127C141.685 6.48811 142.389 5.99401 143.571 5.99401V4.58659C142.269 4.58659 141.745 4.19731 141.745 3.35884C141.745 2.38563 142.224 1.98137 143.571 1.98137V0.34936C141.356 0.34936 139.829 1.4723 139.829 3.13426C139.829 4.10747 140.204 4.81118 140.982 5.21544C140.293 5.51489 139.785 6.59291 139.785 7.52121C139.785 9.28797 141.087 10.6355 143.347 10.6355C145.337 10.6355 146.699 9.28797 146.699 7.26668V4.58659H144.828V7.26668Z" fill="black"/>
<path d="M76.9085 26.5114V21.4058C76.9085 20.0283 75.8758 18.9503 74.3941 18.9503C73.4661 18.9503 72.8076 19.3096 72.4035 20.1181C71.8348 19.2647 71.3558 18.9503 70.3531 18.9503C69.3803 18.9503 68.6918 19.2497 68.1979 20.2229V19.1449H66.372V26.5114H68.3176V22.0346C68.3176 21.0764 68.7217 20.5972 69.5 20.5972C70.3531 20.5972 70.6674 20.8967 70.6674 22.0795V26.5114H72.613V22.1095C72.613 21.2111 73.1369 20.5373 73.8553 20.5373C74.5437 20.5373 75.0077 21.1662 75.0077 22.0496V26.5114H76.9085Z" fill="black"/>
<path d="M82.1154 23.7115C82.1005 24.5799 81.3521 25.3136 80.3494 25.3136C79.7357 25.3136 79.4065 25.0441 79.4065 24.4901C79.4065 23.8613 79.7657 23.5468 80.8732 23.3372C81.5916 23.2025 81.9358 23.0977 82.1304 22.903L82.1154 23.7115ZM84.0761 26.5114V21.8549C84.0761 19.9983 83.2679 18.9503 80.9331 18.9503C78.5684 18.9503 77.7302 20.0133 77.7003 21.5405H79.5112C79.601 20.8817 79.9602 20.4475 80.8433 20.4475C81.6066 20.4475 82.0855 20.732 82.0855 21.2111C82.0855 21.7202 81.8161 21.9148 80.8433 22.0496C78.8827 22.3191 77.4608 22.5586 77.4608 24.6847C77.4608 25.8825 78.2391 26.706 79.9153 26.706C80.9031 26.706 81.6814 26.3617 82.1454 25.8526C82.1603 26.0772 82.2052 26.3317 82.2651 26.5114H84.0761Z" fill="black"/>
<path d="M86.8797 26.5114V22.6784C86.8797 21.4956 87.4634 20.8967 88.6608 20.8967C88.8404 20.8967 89.02 20.9117 89.1996 20.9416V18.9503H88.9451C88.1519 18.9503 87.4036 19.0401 86.76 20.0283V19.1449H84.9341V26.5114H86.8797Z" fill="black"/>
<path d="M96.4477 26.5114L94.0381 21.8549L96.5076 19.1449H94.1279L91.7033 21.9448V16.4498H89.7427V26.5114H91.7033V24.1757L92.6462 23.2025L94.2626 26.5114H96.4477Z" fill="black"/>
<path d="M98.0438 22.1095C98.1186 21.0913 98.7622 20.4924 99.5404 20.4924C100.304 20.4924 101.022 21.0165 101.052 22.1095H98.0438ZM103.058 23.3372C103.058 20.4176 101.86 18.9503 99.6003 18.9503C97.3404 18.9503 96.0383 20.4176 96.0383 22.6934C96.0383 25.3585 97.2655 26.706 99.72 26.706C101.292 26.706 102.504 25.8526 102.953 24.3404H100.947C100.813 24.8494 100.259 25.1639 99.6302 25.1639C98.6724 25.1639 98.0438 24.4452 97.9839 23.3372H103.058Z" fill="black"/>
<path d="M107.906 23.5768C107.906 24.4901 107.547 25.0141 106.768 25.0141C105.975 25.0141 105.646 24.4751 105.646 23.5468V20.5224H109.717V19.1449H105.646V17.1536H103.73V23.7415C103.73 25.3286 104.583 26.706 106.738 26.706C108.819 26.706 109.717 25.3136 109.717 23.7564V21.6603H107.906V23.5768Z" fill="black"/>
<path d="M112.502 26.5114V19.1449H110.557V26.5114H112.502ZM112.502 18.2615V16.4498H110.557V18.2615H112.502Z" fill="black"/>
<path d="M120.066 26.5114V21.4058C120.066 19.8037 119.034 18.9503 117.627 18.9503C116.444 18.9503 115.696 19.3994 115.247 20.2229V19.1449H113.391V26.5114H115.337V22.2891C115.337 21.1662 115.831 20.5972 116.848 20.5972C117.776 20.5972 118.106 20.9117 118.106 22.0496V26.5114H120.066Z" fill="black"/>
<path d="M124.45 25.0441C123.493 25.0441 122.789 24.2056 122.789 22.888C122.789 21.3758 123.358 20.6422 124.45 20.6422C125.558 20.6422 126.112 21.4058 126.112 23.0078C126.112 24.2505 125.393 25.0441 124.45 25.0441ZM126.052 26.736C126.052 27.7092 125.229 28.3231 124.196 28.3231C123.223 28.3231 122.58 27.799 122.58 26.9157H120.769C120.769 28.8172 122.28 30 124.331 30C126.381 30 127.997 28.8022 127.997 26.5863V19.1449H126.052V20.0582C125.588 19.3096 124.914 18.9503 123.986 18.9503C122.205 18.9503 120.769 20.4924 120.769 22.7832C120.769 24.7147 121.607 26.5713 124.031 26.5713C124.989 26.5713 125.782 26.182 126.052 25.5232V26.736Z" fill="black"/>
<path d="M135.952 25.119C134.979 25.119 134.291 24.2056 134.291 22.888C134.291 21.3758 134.83 20.6122 135.967 20.6122C137.045 20.6122 137.598 21.4058 137.598 23.0078C137.598 24.2505 136.88 25.119 135.952 25.119ZM139.439 26.5114V16.4498H137.523V20.1031C136.97 19.3246 136.251 18.9503 135.338 18.9503C133.438 18.9503 132.315 20.5224 132.315 22.7533C132.315 25.2387 133.647 26.706 135.503 26.706C136.401 26.706 137.089 26.3617 137.553 25.613L137.568 26.5114H139.439Z" fill="black"/>
<path d="M142.289 26.5114V19.1449H140.344V26.5114H142.289ZM142.289 18.2615V16.4498H140.344V18.2615H142.289Z" fill="black"/>
<path d="M146.71 25.0441C145.752 25.0441 145.049 24.2056 145.049 22.888C145.049 21.3758 145.618 20.6422 146.71 20.6422C147.818 20.6422 148.372 21.4058 148.372 23.0078C148.372 24.2505 147.653 25.0441 146.71 25.0441ZM148.312 26.736C148.312 27.7092 147.489 28.3231 146.456 28.3231C145.483 28.3231 144.839 27.799 144.839 26.9157H143.029C143.029 28.8172 144.54 30 146.591 30C148.641 30 150.257 28.8022 150.257 26.5863V19.1449H148.312V20.0582C147.848 19.3096 147.174 18.9503 146.246 18.9503C144.465 18.9503 143.029 20.4924 143.029 22.7832C143.029 24.7147 143.867 26.5713 146.291 26.5713C147.249 26.5713 148.042 26.182 148.312 25.5232V26.736Z" fill="black"/>
<path d="M153.105 26.5114V19.1449H151.159V26.5114H153.105ZM153.105 18.2615V16.4498H151.159V18.2615H153.105Z" fill="black"/>
<path d="M158.17 23.5768C158.17 24.4901 157.81 25.0141 157.032 25.0141C156.239 25.0141 155.91 24.4751 155.91 23.5468V20.5224H159.981V19.1449H155.91V17.1536H153.994V23.7415C153.994 25.3286 154.847 26.706 157.002 26.706C159.083 26.706 159.981 25.3136 159.981 23.7564V21.6603H158.17V23.5768Z" fill="black"/>
<path d="M165.236 23.7115C165.221 24.5799 164.472 25.3136 163.47 25.3136C162.856 25.3136 162.527 25.0441 162.527 24.4901C162.527 23.8613 162.886 23.5468 163.993 23.3372C164.712 23.2025 165.056 23.0977 165.251 22.903L165.236 23.7115ZM167.196 26.5114V21.8549C167.196 19.9983 166.388 18.9503 164.053 18.9503C161.689 18.9503 160.85 20.0133 160.821 21.5405H162.632C162.721 20.8817 163.081 20.4475 163.964 20.4475C164.727 20.4475 165.206 20.732 165.206 21.2111C165.206 21.7202 164.936 21.9148 163.964 22.0496C162.003 22.3191 160.581 22.5586 160.581 24.6847C160.581 25.8825 161.359 26.706 163.036 26.706C164.023 26.706 164.802 26.3617 165.266 25.8526C165.281 26.0772 165.326 26.3317 165.385 26.5114H167.196Z" fill="black"/>
<path d="M170 26.5114V16.4498H168.054V26.5114H170Z" fill="black"/>
</svg>
