<svg width="201" height="30" viewBox="0 0 201 30" fill="none" xmlns="http://www.w3.org/2000/svg">
<path d="M92.6798 8.20558C92.4486 10.1012 90.8983 11.3789 88.9117 11.3789C86.6781 11.3789 85.1436 9.90222 85.1436 6.975C85.1436 4.05303 86.6781 2.77008 88.98 2.77008C91.1137 2.77008 92.5642 3.98495 92.7009 5.91199H90.5146C90.399 5.06367 89.7788 4.56621 88.9643 4.56621C88.0498 4.56621 87.2983 5.14746 87.2983 6.92787C87.2983 8.70829 88.0498 9.57231 88.9012 9.57231C89.7526 9.57231 90.42 9.09055 90.5041 8.21082H92.6798V8.20558Z" fill="#F3F3F3"/>
<path d="M93.1318 7.07981C93.1318 4.48773 94.7505 2.77539 97.3519 2.77539C99.9219 2.77539 101.519 4.47202 101.519 7.07981C101.519 9.67188 99.9008 11.3842 97.3519 11.3842C94.7032 11.379 93.1318 9.61952 93.1318 7.07981ZM99.3385 7.07981C99.3385 5.41983 98.6711 4.60293 97.3519 4.60293C96.0328 4.60293 95.3654 5.41459 95.3654 7.07981C95.3654 8.73978 96.0328 9.57239 97.3519 9.57239C98.6711 9.57239 99.3385 8.73978 99.3385 7.07981Z" fill="#F3F3F3"/>
<path d="M107.558 11.1642V6.21047C107.558 4.94847 107.19 4.59762 106.155 4.59762C105.019 4.59762 104.473 5.23124 104.473 6.47753V11.1642H102.308V2.99001H104.373V4.18394C104.872 3.27279 105.708 2.77008 107.027 2.77008C108.593 2.77008 109.744 3.71789 109.744 5.49307V11.159H107.558V11.1642Z" fill="#F3F3F3"/>
<path d="M115.631 5.46696C115.515 4.67101 115.079 4.38824 114.096 4.38824C113.282 4.38824 112.814 4.58722 112.814 5.06898C112.814 5.55074 113.266 5.74973 114.149 6.00108C115.084 6.26815 115.967 6.45142 116.598 6.69754C117.465 7.04839 117.948 7.61393 117.948 8.67694C117.948 10.3736 116.698 11.3842 114.364 11.3842C111.847 11.3842 110.444 10.206 110.412 8.54079H112.646C112.646 9.30533 113.297 9.75567 114.348 9.75567C115.116 9.75567 115.799 9.52526 115.799 8.90735C115.799 8.3261 115.184 8.14282 114.48 7.97525C113.098 7.64535 112.33 7.40971 111.747 7.04315C110.98 6.56139 110.712 5.92777 110.712 5.1999C110.712 3.82269 111.663 2.77539 114.164 2.77539C116.535 2.77539 117.602 3.70749 117.717 5.46696H115.631Z" fill="#F3F3F3"/>
<path d="M123.903 11.1642V10.0174C123.335 10.9495 122.484 11.3789 121.354 11.3789C119.719 11.3789 118.568 10.164 118.568 8.37316V2.99002H120.734V8.04326C120.734 9.07485 121.201 9.57232 122.116 9.57232C123.214 9.57232 123.798 8.79208 123.798 7.71336V2.99526H125.947V11.1695H123.903V11.1642Z" fill="#F3F3F3"/>
<path d="M126.909 11.1643V0H129.074V11.1643H126.909Z" fill="#F3F3F3"/>
<path d="M134.645 5.78115H136.663V8.10616C136.663 9.83421 135.665 11.379 133.347 11.379C130.945 11.379 129.994 9.84992 129.994 8.09045V0.780273H132.128V2.99008H136.663V4.51915H132.128V7.87575C132.128 8.90735 132.496 9.50431 133.379 9.50431C134.246 9.50431 134.645 8.92306 134.645 7.90717V5.78115Z" fill="#F3F3F3"/>
<path d="M137.361 7.07981C137.361 4.48773 138.98 2.77539 141.581 2.77539C144.151 2.77539 145.749 4.47202 145.749 7.07981C145.749 9.67188 144.13 11.3842 141.581 11.3842C138.933 11.379 137.361 9.61952 137.361 7.07981ZM143.568 7.07981C143.568 5.41983 142.901 4.60293 141.581 4.60293C140.262 4.60293 139.595 5.41459 139.595 7.07981C139.595 8.73978 140.262 9.57239 141.581 9.57239C142.901 9.57239 143.568 8.73978 143.568 7.07981Z" fill="#F3F3F3"/>
<path d="M146.538 11.1643V2.99009H148.572V3.96932C149.287 2.87488 150.122 2.77539 151.005 2.77539H151.289V4.9852C151.089 4.95378 150.89 4.93283 150.69 4.93283C149.355 4.93283 148.703 5.59787 148.703 6.91224V11.1643H146.538Z" fill="#F3F3F3"/>
<path d="M151.94 2.01082V0H154.106V2.01082H151.94ZM151.94 11.1643V2.99005H154.106V11.1643H151.94Z" fill="#F3F3F3"/>
<path d="M160.228 11.1643C160.16 10.9653 160.112 10.6825 160.097 10.4312C159.582 10.9967 158.714 11.379 157.611 11.379C155.745 11.379 154.878 10.4626 154.878 9.13776C154.878 6.77609 156.46 6.51426 158.646 6.21578C159.729 6.06392 160.028 5.84923 160.028 5.28368C160.028 4.74956 159.492 4.43537 158.646 4.43537C157.663 4.43537 157.264 4.91713 157.164 5.65024H155.141C155.172 3.95361 156.108 2.77539 158.741 2.77539C161.342 2.77539 162.241 3.9379 162.241 6.00108V11.1695H160.228V11.1643ZM160.076 7.16359C159.86 7.37829 159.476 7.49349 158.672 7.64535C157.437 7.87576 157.038 8.2266 157.038 8.92306C157.038 9.53573 157.406 9.83945 158.089 9.83945C159.208 9.83945 160.039 9.02779 160.055 8.05903L160.076 7.16359Z" fill="#F3F3F3"/>
<path d="M172.704 4.83334H174.79V7.80768C174.79 10.0489 173.272 11.5466 171.054 11.5466C168.536 11.5466 167.086 10.0489 167.086 8.09045C167.086 7.05886 167.654 5.86494 168.421 5.5298C167.554 5.07946 167.138 4.29922 167.138 3.2205C167.138 1.37724 168.841 0.130951 171.306 0.130951V1.94279C169.803 1.94279 169.272 2.39313 169.272 3.47185C169.272 4.40395 169.856 4.83334 171.306 4.83334V6.39382C169.987 6.39382 169.204 6.94366 169.204 8.0538C169.204 8.96495 169.771 9.76614 171.038 9.76614C172.157 9.76614 172.704 9.08539 172.704 7.80768V4.83334Z" fill="#F3F3F3"/>
<path d="M94.9186 26.1353V21.1816C94.9186 20.2024 94.4036 19.5059 93.6363 19.5059C92.8374 19.5059 92.2541 20.2547 92.2541 21.2497V26.1353H90.0888V21.2183C90.0888 19.9039 89.7367 19.574 88.7908 19.574C87.9236 19.574 87.4716 20.1081 87.4716 21.1711V26.1406H85.2959V17.9611H87.3297V19.1551C87.8816 18.0763 88.6489 17.7412 89.7315 17.7412C90.8509 17.7412 91.3817 18.0921 92.0176 19.0346C92.4696 18.1392 93.2001 17.7412 94.2354 17.7412C95.8856 17.7412 97.0365 18.9351 97.0365 20.4642V26.1301H94.9186V26.1353Z" fill="#F3F3F3"/>
<path d="M103.007 26.1354C102.939 25.9364 102.892 25.6537 102.876 25.4023C102.361 25.9679 101.494 26.3501 100.39 26.3501C98.5244 26.3501 97.6572 25.4337 97.6572 24.1089C97.6572 21.7472 99.2391 21.4854 101.425 21.1869C102.508 21.0351 102.808 20.8204 102.808 20.2548C102.808 19.7207 102.271 19.4065 101.425 19.4065C100.443 19.4065 100.043 19.8883 99.9433 20.6214H97.9253C97.9568 18.9247 98.8923 17.7465 101.525 17.7465C104.127 17.7465 105.025 18.909 105.025 20.9722V26.1407H103.007V26.1354ZM102.855 22.1295C102.639 22.3442 102.256 22.4594 101.452 22.6112C100.217 22.8417 99.8172 23.1925 99.8172 23.889C99.8172 24.5016 100.185 24.8001 100.868 24.8001C101.988 24.8001 102.818 23.9884 102.834 23.0249L102.855 22.1295Z" fill="#F3F3F3"/>
<path d="M105.977 26.1354V17.9612H108.01V18.9404C108.725 17.846 109.561 17.7465 110.444 17.7465H110.727V19.9563C110.528 19.9249 110.328 19.904 110.128 19.904C108.793 19.904 108.142 20.569 108.142 21.8834V26.1354H105.977Z" fill="#F3F3F3"/>
<path d="M116.366 26.1355L114.564 22.4647L113.512 23.5434V26.1355H111.326V14.966H113.512V21.0665L116.214 17.9613H118.868L116.114 20.967L118.799 26.1355H116.366Z" fill="#F3F3F3"/>
<path d="M120.503 22.6112C120.571 23.8418 121.27 24.6377 122.337 24.6377C123.036 24.6377 123.656 24.2869 123.803 23.7213H126.036C125.537 25.397 124.187 26.3448 122.437 26.3448C119.704 26.3448 118.332 24.8472 118.332 21.8938C118.332 19.3698 119.783 17.7412 122.3 17.7412C124.817 17.7412 126.152 19.3698 126.152 22.6112H120.503ZM123.924 21.2497C123.892 20.0348 123.088 19.4536 122.242 19.4536C121.375 19.4536 120.66 20.1186 120.576 21.2497H123.924Z" fill="#F3F3F3"/>
<path d="M131.56 20.7524H133.578V23.0774C133.578 24.8054 132.58 26.3502 130.262 26.3502C127.86 26.3502 126.909 24.8211 126.909 23.0617V15.7462H129.043V17.9561H133.578V19.4851H129.043V22.8417C129.043 23.8733 129.411 24.4703 130.294 24.4703C131.161 24.4703 131.56 23.889 131.56 22.8731V20.7524Z" fill="#F3F3F3"/>
<path d="M134.514 16.9768V14.966H136.679V16.9768H134.514ZM134.514 26.1355V17.9613H136.679V26.1355H134.514Z" fill="#F3F3F3"/>
<path d="M142.917 26.1353V21.1816C142.917 19.9196 142.549 19.5688 141.514 19.5688C140.379 19.5688 139.832 20.2024 139.832 21.4487V26.1353H137.667V17.9611H139.732V19.1551C140.232 18.2439 141.067 17.7412 142.386 17.7412C143.952 17.7412 145.103 18.689 145.103 20.4642V26.1301H142.917V26.1353Z" fill="#F3F3F3"/>
<path d="M151.772 25.0357C151.472 25.7688 150.589 26.1982 149.523 26.1982C146.821 26.1982 145.886 24.1402 145.886 21.9933C145.886 19.4536 147.489 17.7412 149.47 17.7412C150.505 17.7412 151.257 18.1392 151.772 18.9718V17.9559H153.937V26.2139C153.937 28.6751 152.134 29.9999 149.854 29.9999C147.567 29.9999 145.886 28.6855 145.886 26.5752H147.904C147.904 27.5544 148.619 28.1357 149.706 28.1357C150.857 28.1357 151.772 27.4549 151.772 26.3762V25.0357ZM151.84 22.2446C151.84 20.4694 151.225 19.6211 149.99 19.6211C148.771 19.6211 148.14 20.4328 148.14 22.1137C148.14 23.5747 148.923 24.5068 149.99 24.5068C151.036 24.5068 151.84 23.6271 151.84 22.2446Z" fill="#F3F3F3"/>
<path d="M164.596 26.1355L164.58 25.1406C164.065 25.9732 163.298 26.3555 162.294 26.3555C160.229 26.3555 158.741 24.7269 158.741 21.9673C158.741 19.4904 159.992 17.7466 162.11 17.7466C163.129 17.7466 163.928 18.1603 164.543 19.0243V14.9713H166.677V26.1355H164.596ZM164.633 22.2448C164.633 20.4696 164.018 19.5847 162.814 19.5847C161.548 19.5847 160.948 20.433 160.948 22.1087C160.948 23.5696 161.716 24.5855 162.798 24.5855C163.834 24.5908 164.633 23.6272 164.633 22.2448Z" fill="#F3F3F3"/>
<path d="M167.686 16.9768V14.966H169.851V16.9768H167.686ZM167.686 26.1355V17.9613H169.851V26.1355H167.686Z" fill="#F3F3F3"/>
<path d="M176.557 25.0357C176.257 25.7688 175.375 26.1982 174.308 26.1982C171.606 26.1982 170.671 24.1402 170.671 21.9933C170.671 19.4536 172.274 17.7412 174.255 17.7412C175.29 17.7412 176.042 18.1392 176.557 18.9718V17.9559H178.722V26.2139C178.722 28.6751 176.92 29.9999 174.639 29.9999C172.353 29.9999 170.671 28.6855 170.671 26.5752H172.689C172.689 27.5544 173.404 28.1357 174.492 28.1357C175.643 28.1357 176.557 27.4549 176.557 26.3762V25.0357ZM176.62 22.2446C176.62 20.4694 176.005 19.6211 174.77 19.6211C173.551 19.6211 172.92 20.4328 172.92 22.1137C172.92 23.5747 173.703 24.5068 174.77 24.5068C175.821 24.5068 176.62 23.6271 176.62 22.2446Z" fill="#F3F3F3"/>
<path d="M179.726 16.9768V14.966H181.891V16.9768H179.726ZM179.726 26.1355V17.9613H181.891V26.1355H179.726Z" fill="#F3F3F3"/>
<path d="M187.53 20.7524H189.548V23.0774C189.548 24.8054 188.55 26.3502 186.232 26.3502C183.83 26.3502 182.879 24.8211 182.879 23.0617V15.7462H185.013V17.9561H189.548V19.4851H185.013V22.8417C185.013 23.8733 185.38 24.4703 186.263 24.4703C187.131 24.4703 187.53 23.889 187.53 22.8731V20.7524Z" fill="#F3F3F3"/>
<path d="M195.571 26.1354C195.502 25.9364 195.455 25.6537 195.439 25.4023C194.924 25.9679 194.057 26.3501 192.954 26.3501C191.088 26.3501 190.221 25.4337 190.221 24.1089C190.221 21.7472 191.803 21.4854 193.989 21.1869C195.071 21.0351 195.371 20.8204 195.371 20.2548C195.371 19.7207 194.835 19.4065 193.989 19.4065C193.006 19.4065 192.607 19.8883 192.507 20.6214H190.489C190.52 18.9247 191.456 17.7465 194.089 17.7465C196.69 17.7465 197.589 18.909 197.589 20.9722V26.1407H195.571V26.1354ZM195.418 22.1295C195.203 22.3442 194.819 22.4594 194.015 22.6112C192.78 22.8417 192.381 23.1925 192.381 23.889C192.381 24.5016 192.749 24.8001 193.432 24.8001C194.551 24.8001 195.382 23.9884 195.397 23.0249L195.418 22.1295Z" fill="#F3F3F3"/>
<path d="M198.54 26.1355V14.966H200.705V26.1302H198.54V26.1355Z" fill="#F3F3F3"/>
<path d="M49.0119 26.1511L45.3752 10.939L41.6648 26.1459H37.0716L30.4287 2.77008H35.6579L39.5101 17.9088L42.7579 2.77008H47.9188L51.4872 17.9088L55.3027 2.77008H60.3216L53.7523 26.1459H49.0119V26.1511Z" fill="#F3F3F3"/>
<path d="M62.8653 18.6838C63.0072 21.2916 64.4893 22.9778 66.7543 22.9778C68.2364 22.9778 69.545 22.2394 69.8656 21.0402H74.6007C73.5391 24.5958 70.6802 26.6014 66.9698 26.6014C61.1731 26.6014 58.2773 23.4333 58.2773 17.1652C58.2773 11.8135 61.3518 8.36264 66.686 8.36264C72.0203 8.36264 74.8477 11.8135 74.8477 18.6786H62.8653V18.6838ZM70.1073 15.7985C70.039 13.2274 68.3415 11.9968 66.5389 11.9968C64.6995 11.9968 63.1807 13.4054 63.0072 15.7985H70.1073Z" fill="#F3F3F3"/>
<path d="M75.4785 26.1511V21.3964H80.3923V26.1511H75.4785Z" fill="#F3F3F3"/>
<path d="M19.5079 26.1617C17.3532 26.1617 15.6084 24.4232 15.6084 22.2762C15.6084 20.1292 17.3532 18.3907 19.5079 18.3907C21.6627 18.3907 23.4075 20.1292 23.4075 22.2762C23.4127 24.4179 21.6627 26.1617 19.5079 26.1617Z" fill="#F3F3F3"/>
<path d="M15.609 10.5516V3.51372C15.609 3.08433 15.2411 2.75966 14.8154 2.80155C13.0601 2.9796 11.4782 3.73889 10.2642 4.88569C8.75592 6.30478 7.8152 8.32084 7.80469 10.5516V10.583V18.3749V25.4442C7.80469 25.8736 8.17257 26.1983 8.59826 26.1564C10.3536 25.9784 11.9355 25.2191 13.1495 24.0723C14.663 22.6479 15.609 20.6214 15.609 18.3749V10.5516Z" fill="#F3F3F3"/>
<path d="M23.4127 3.50848C23.4127 3.08433 23.0448 2.75966 22.6191 2.80155C20.8638 2.9796 19.2819 3.73365 18.0679 4.86998C16.5544 6.28907 15.6084 8.30513 15.6084 10.5359C15.6084 12.7719 16.5544 14.7827 18.0679 16.2018C19.2819 17.3381 20.8638 18.0922 22.6191 18.2702C23.0448 18.3121 23.4127 17.9874 23.4127 17.5633V10.5359V3.50848Z" fill="#F3F3F3"/>
<path d="M7.80431 10.5516V3.51372C7.80431 3.08433 7.43643 2.75966 7.01074 2.80155C5.25543 2.9796 3.67354 3.73889 2.45954 4.88569C0.951233 6.30478 0.0105109 8.32084 0 10.5516V10.583V18.3749V25.4442C0 25.8736 0.36788 26.1983 0.79357 26.1564C2.54888 25.9784 4.13077 25.2191 5.34477 24.0723C6.85833 22.6427 7.80431 20.6214 7.80431 18.3697V10.5516Z" fill="#F3F3F3"/>
<path d="M24.001 25.659V24.4651H24.5108C24.6369 24.4651 24.7315 24.4755 24.7893 24.4965C24.8471 24.5174 24.8944 24.5541 24.9312 24.6117C24.968 24.664 24.9837 24.7269 24.9837 24.8002C24.9837 24.8892 24.9575 24.9625 24.9049 25.0201C24.8524 25.0777 24.7735 25.1144 24.6684 25.1301C24.721 25.1615 24.763 25.1929 24.7998 25.2296C24.8313 25.2662 24.8786 25.3291 24.9364 25.4233L25.0836 25.659H24.7945L24.6211 25.3972C24.5581 25.3029 24.516 25.2453 24.495 25.2191C24.474 25.1929 24.4477 25.1772 24.4214 25.172C24.3951 25.1615 24.3531 25.1563 24.3005 25.1563H24.2532V25.6537H24.001V25.659ZM24.2427 24.9678H24.4214C24.537 24.9678 24.6106 24.9625 24.6369 24.9521C24.6632 24.9416 24.6894 24.9259 24.7052 24.8997C24.721 24.8735 24.7315 24.8473 24.7315 24.8107C24.7315 24.7688 24.721 24.7374 24.6999 24.7112C24.6789 24.685 24.6474 24.6693 24.6106 24.664C24.5896 24.664 24.5318 24.6588 24.4319 24.6588H24.2427V24.9678Z" fill="#F3F3F3"/>
<path d="M25.5359 25.1039C25.5359 25.6851 25.0629 26.1564 24.4743 26.1564C23.891 26.1564 23.418 25.6851 23.418 25.1039C23.418 24.5226 23.891 24.0461 24.4743 24.0461C25.0629 24.0513 25.5359 24.5226 25.5359 25.1039ZM24.4796 25.9993C24.9736 25.9993 25.373 25.6013 25.373 25.1091C25.373 24.6169 24.9736 24.2189 24.4796 24.2189C23.9856 24.2189 23.5861 24.6169 23.5861 25.1091C23.5809 25.5961 23.9856 25.9993 24.4796 25.9993Z" fill="#F3F3F3"/>
</svg>
