<svg width="47" height="45" viewBox="0 0 47 45" fill="none" xmlns="http://www.w3.org/2000/svg">
<path d="M4.16943 9.03217C11.1 -0.201924 25.4561 -2.88773 35.6727 3.46719C45.7621 9.73958 49.4725 21.8057 45.3377 33.1243C41.4364 43.8133 31.1561 48.046 23.747 42.6697C20.9724 40.6559 19.8951 38.1304 19.3765 34.0298L19.1267 31.7024L19.0206 30.7639C18.7306 28.5615 18.2874 27.5758 17.3587 27.0571C16.0975 26.3544 15.2559 26.3378 13.5987 26.9792L12.7713 27.3235L12.3493 27.5074C9.95902 28.545 8.37018 28.9105 6.35939 28.4884L5.88792 28.3776L5.50132 28.2667C-1.07325 26.2294 -2.04683 17.3089 4.16943 9.03217ZM34.6449 20.1668C34.7451 20.5408 34.9179 20.8913 35.1534 21.1984C35.389 21.5055 35.6827 21.7632 36.0179 21.9568C36.353 22.1504 36.723 22.276 37.1066 22.3265C37.4903 22.3771 37.8802 22.3515 38.254 22.2514C38.6278 22.1512 38.9782 21.9783 39.2852 21.7427C39.5922 21.5071 39.8499 21.2132 40.0434 20.878C40.2369 20.5428 40.3625 20.1727 40.413 19.7889C40.4635 19.4051 40.438 19.0151 40.3378 18.6412C40.1356 17.886 39.6417 17.2422 38.9649 16.8513C38.2881 16.4603 37.4837 16.3544 36.7288 16.5567C35.9739 16.759 35.3302 17.253 34.9394 17.93C34.5486 18.6071 34.4427 19.4117 34.6449 20.1668ZM35.8118 28.3917C35.904 28.7741 36.0717 29.1342 36.3051 29.4507C36.5386 29.7672 36.833 30.0338 37.1711 30.2348C37.5091 30.4357 37.8839 30.5669 38.2735 30.6207C38.663 30.6745 39.0594 30.6498 39.4392 30.5479C39.819 30.4461 40.1746 30.2692 40.4851 30.0278C40.7955 29.7864 41.0545 29.4852 41.2468 29.1421C41.439 28.799 41.5607 28.4208 41.6046 28.0299C41.6485 27.639 41.6137 27.2433 41.5024 26.866C41.2847 26.1287 40.7876 25.5056 40.1171 25.1297C39.4467 24.7538 38.6559 24.6548 37.9135 24.8538C37.1711 25.0528 36.5359 25.5342 36.1432 26.1951C35.7506 26.856 35.6316 27.6443 35.8118 28.3917ZM29.9798 13.0856C30.182 13.8408 30.6759 14.4847 31.3527 14.8756C32.0295 15.2665 32.8339 15.3725 33.5888 15.1702C34.3438 14.9678 34.9874 14.4738 35.3782 13.7968C35.769 13.1198 35.875 12.3152 35.6727 11.56C35.5726 11.1861 35.3998 10.8355 35.1642 10.5284C34.9286 10.2213 34.6349 9.96361 34.2998 9.77005C33.6229 9.37913 32.8186 9.27317 32.0636 9.47548C31.3087 9.6778 30.665 10.1718 30.2742 10.8488C29.8834 11.5259 29.7775 12.3305 29.9798 13.0856ZM29.9138 34.3033C30.0139 34.6772 30.1867 35.0278 30.4223 35.3349C30.6578 35.642 30.9516 35.8997 31.2867 36.0933C31.6218 36.2868 31.9918 36.4125 32.3755 36.463C32.7592 36.5135 33.149 36.488 33.5228 36.3878C33.8966 36.2876 34.2471 36.1148 34.5541 35.8792C34.8611 35.6435 35.1187 35.3497 35.3122 35.0145C35.5057 34.6792 35.6313 34.3091 35.6819 33.9254C35.7324 33.5416 35.7068 33.1516 35.6067 32.7777C35.4044 32.0225 34.9106 31.3786 34.2338 30.9877C33.5569 30.5968 32.7526 30.4908 31.9976 30.6932C31.2427 30.8955 30.599 31.3895 30.2082 32.0665C29.8174 32.7436 29.7115 33.5482 29.9138 34.3033ZM21.6702 10.7936C21.7675 11.1705 21.9385 11.5243 22.1732 11.8347C22.408 12.1451 22.7018 12.4059 23.0379 12.6021C23.3739 12.7983 23.7455 12.9259 24.1311 12.9777C24.5167 13.0295 24.9088 13.0044 25.2846 12.9038C25.6605 12.8033 26.0127 12.6292 26.321 12.3917C26.6293 12.1543 26.8875 11.8581 27.0807 11.5203C27.274 11.1825 27.3984 10.8097 27.4469 10.4236C27.4954 10.0374 27.4669 9.64544 27.3631 9.27033C27.1559 8.52112 26.6612 7.88414 25.9867 7.49806C25.3122 7.11198 24.5125 7.00806 23.7618 7.20894C23.011 7.40982 22.37 7.89922 21.9783 8.5706C21.5866 9.24198 21.4758 10.041 21.6702 10.7936Z" fill="white"/>
</svg>
