<svg width="54" height="36" viewBox="0 0 54 36" fill="none" xmlns="http://www.w3.org/2000/svg">
<path d="M54 23.85C54 25.2 51.3 26.1 48.15 26.55C46.125 22.725 42.075 19.8 37.35 17.775C37.8 17.1 38.25 16.65 38.7 15.975H40.5C47.475 15.75 54 20.025 54 23.85ZM15.3 15.75H13.5C6.525 15.75 0 20.025 0 23.85C0 25.2 2.7 26.1 5.85 26.55C7.875 22.725 11.925 19.8 16.65 17.775L15.3 15.75ZM27 18C31.95 18 36 13.95 36 9C36 4.05 31.95 0 27 0C22.05 0 18 4.05 18 9C18 13.95 22.05 18 27 18ZM27 20.25C17.775 20.25 9 26.1 9 31.5C9 36 27 36 27 36C27 36 45 36 45 31.5C45 26.1 36.225 20.25 27 20.25ZM39.825 13.5H40.5C44.325 13.5 47.25 10.575 47.25 6.75C47.25 2.925 44.325 0 40.5 0C39.375 0 38.475 0.225 37.575 0.675C39.375 2.925 40.5 5.85 40.5 9C40.5 10.575 40.275 12.15 39.825 13.5ZM13.5 13.5H14.175C13.725 12.15 13.5 10.575 13.5 9C13.5 5.85 14.625 2.925 16.425 0.675C15.525 0.225 14.625 0 13.5 0C9.675 0 6.75 2.925 6.75 6.75C6.75 10.575 9.675 13.5 13.5 13.5Z" fill="#018390"/>
</svg>
