<svg width="47" height="47" viewBox="0 0 47 47" fill="none" xmlns="http://www.w3.org/2000/svg">
<path d="M36.151 1.81089C36.1516 1.4529 36.0459 1.10278 35.8473 0.804919C35.6488 0.507056 35.3662 0.274865 35.0355 0.137781C34.7048 0.000697607 34.3409 -0.0351051 33.9898 0.0349119C33.6387 0.104929 33.3163 0.277613 33.0635 0.531071L25.833 7.7617C25.6652 7.92988 25.5323 8.12948 25.4417 8.34908C25.3511 8.56868 25.3047 8.80398 25.3052 9.04152V19.1391L22.6262 21.8144C22.0903 21.6722 21.5289 21.6549 20.9853 21.7639C20.4416 21.8728 19.9302 22.1051 19.4905 22.4429C19.0508 22.7806 18.6945 23.2148 18.449 23.7119C18.2035 24.2091 18.0754 24.756 18.0746 25.3104C18.0748 25.8249 18.1849 26.3335 18.3974 26.802C18.6099 27.2706 18.92 27.6884 19.3069 28.0276C19.6938 28.3667 20.1487 28.6193 20.641 28.7686C21.1334 28.9179 21.652 28.9603 22.1621 28.8931C22.6722 28.8259 23.162 28.6506 23.599 28.3789C24.0359 28.1072 24.4098 27.7454 24.6957 27.3176C24.9815 26.8899 25.1728 26.406 25.2567 25.8984C25.3407 25.3908 25.3153 24.8711 25.1822 24.3741L27.8611 21.6951H37.9586C38.1961 21.6955 38.4314 21.6491 38.651 21.5586C38.8706 21.468 39.0702 21.335 39.2384 21.1673L46.4689 13.9367C46.7224 13.6838 46.8951 13.3615 46.9651 13.0104C47.0351 12.6593 46.9993 12.2953 46.8622 11.9646C46.7251 11.6339 46.4929 11.3514 46.1951 11.1528C45.8972 10.9542 45.5471 10.8485 45.1891 10.8492H36.151V1.81089ZM43.179 22.3386C43.8011 26.8403 42.9937 31.4237 40.8707 35.4418C38.7477 39.4598 35.4165 42.7097 31.3471 44.7325C27.2777 46.7554 22.6758 47.449 18.191 46.7156C13.7061 45.9822 9.56491 43.8588 6.35185 40.6451C3.13879 37.4313 1.01619 33.2896 0.283675 28.8046C-0.448838 24.3196 0.245735 19.7178 2.26935 15.6487C4.29296 11.5797 7.5434 8.24901 11.5618 6.12679C15.5803 4.00457 20.1638 3.19803 24.6652 3.82101L23.2806 5.20567C22.7765 5.70919 22.3765 6.30713 22.1035 6.9653C21.8306 7.62348 21.69 8.32899 21.6899 9.04152C18.4722 9.04152 15.3268 9.99567 12.6515 11.7833C9.97609 13.571 7.89089 16.1118 6.65955 19.0846C5.42821 22.0573 5.10604 25.3285 5.73377 28.4843C6.3615 31.6402 7.91095 34.539 10.1862 36.8143C12.4614 39.0895 15.3602 40.639 18.516 41.2667C21.6718 41.8945 24.9429 41.5723 27.9156 40.3409C30.8884 39.1096 33.4292 37.0244 35.2168 34.3489C37.0044 31.6735 37.9586 28.5281 37.9586 25.3104C39.3964 25.3092 40.7748 24.737 41.7908 23.7197L43.179 22.3386ZM21.6899 12.6568C19.1873 12.6568 16.7409 13.399 14.66 14.7893C12.5792 16.1797 10.9573 18.156 9.99963 20.4681C9.04192 22.7802 8.79134 25.3245 9.27957 27.779C9.76781 30.2336 10.9729 32.4882 12.7425 34.2579C14.5122 36.0275 16.7668 37.2327 19.2213 37.7209C21.6758 38.2091 24.22 37.9585 26.5321 37.0008C28.8443 36.0431 30.8205 34.4213 32.2108 32.3404C33.6012 30.2595 34.3433 27.8131 34.3433 25.3104H29.3579L28.906 25.7623C28.819 27.1512 28.3332 28.4856 27.5067 29.6052C26.6802 30.7248 25.5482 31.5821 24.2465 32.0742C22.9448 32.5663 21.5288 32.6723 20.1683 32.3796C18.8079 32.0868 17.5608 31.4076 16.5768 30.4236C15.5928 29.4396 14.9136 28.1925 14.6208 26.832C14.3281 25.4715 14.4341 24.0555 14.9262 22.7538C15.4183 21.4521 16.2756 20.32 17.3952 19.4935C18.5148 18.667 19.8491 18.1812 21.238 18.0943L21.6899 17.6423V12.6568Z" fill="#333333"/>
</svg>
