<svg width="47" height="41" viewBox="0 0 47 41" fill="none" xmlns="http://www.w3.org/2000/svg">
<path d="M38.1875 4.36139C38.1875 3.20468 38.6517 2.09534 39.4781 1.27742C40.3044 0.459503 41.4251 0 42.5938 0C43.7624 0 44.8831 0.459503 45.7094 1.27742C46.5358 2.09534 47 3.20468 47 4.36139V36.3449C47 37.5017 46.5358 38.611 45.7094 39.4289C44.8831 40.2468 43.7624 40.7063 42.5938 40.7063C41.4251 40.7063 40.3044 40.2468 39.4781 39.4289C38.6517 38.611 38.1875 37.5017 38.1875 36.3449V4.36139ZM35.25 6.46649C29.1782 9.22871 21.9167 10.7726 14.6875 11.2815V29.4161C15.7545 29.4757 16.8201 29.5581 17.8835 29.6633C23.9142 30.2564 29.7451 31.6056 35.25 34.1991V6.46649ZM11.75 29.2649V11.4385C9.7525 11.517 7.64044 11.5635 5.8515 11.5926C4.29562 11.6139 2.81047 12.2393 1.71598 13.3341C0.621486 14.4289 0.0052428 15.9054 0 17.4456L0 23.2608C0 26.4766 2.632 29.0643 5.85737 29.1021C6.34307 29.1081 6.82874 29.1159 7.31437 29.1254C8.79342 29.1546 10.2721 29.2012 11.75 29.2649ZM15.8331 32.4081C16.6703 32.4691 17.5046 32.5447 18.33 32.6348L19.0732 37.5487C19.1541 37.9692 19.1401 38.4022 19.0324 38.8168C18.9247 39.2313 18.7258 39.6172 18.4499 39.9469C18.1741 40.2766 17.8281 40.542 17.4367 40.724C17.0453 40.906 16.6181 41.0003 16.1856 41H14.5759C14.0049 41 13.4463 40.8352 12.9684 40.5259C12.4905 40.2166 12.1141 39.7761 11.8851 39.2584L8.02525 32.0475C9.68274 32.0884 11.3396 32.1505 12.9955 32.2336C13.9561 32.283 14.9049 32.3412 15.8331 32.4081Z" fill="#F3F3F3"/>
</svg>
