<svg width="60" height="36" viewBox="0 0 60 36" fill="none" xmlns="http://www.w3.org/2000/svg">
<path d="M17.7552 16.3834L17.7551 16.3833C15.5173 13.3085 16.0815 9.0141 19.0355 6.62444L26.1474 0.87116C25.359 0.631319 24.5348 0.509376 23.7 0.509376H23.6973C22.0368 0.500535 20.4181 0.995018 19.0267 1.91658C19.0265 1.91671 19.0263 1.91684 19.0261 1.91697L12.5 6.26815V26.5026H14.6437H14.8376L14.9808 26.6333L23.5495 34.4528L23.5497 34.4529C25.1825 35.9443 27.7061 35.8285 29.1985 34.1954C29.6586 33.6847 29.9669 33.092 30.1251 32.4757L30.3326 31.6674L30.9475 32.2316L32.5412 33.6943L32.5413 33.6943C34.166 35.1859 36.6996 35.0775 38.191 33.4526L38.1911 33.4526C38.5649 33.0455 38.8407 32.57 39.0164 32.0761L39.2319 31.4706L39.7659 31.8284C41.3828 32.912 43.5822 32.6865 44.9406 31.2029L44.941 31.2024C46.4324 29.5776 46.3241 27.0438 44.6996 25.5523L17.7552 16.3834ZM17.7552 16.3834C20.1337 19.6491 24.7402 20.2952 27.9166 17.8149C27.9168 17.8148 27.917 17.8146 27.9171 17.8145L32.4298 14.3053L44.6994 25.552L17.7552 16.3834ZM47.5 22.5621L35.7425 11.734L37.2345 10.5774L37.2371 10.5754C38.1059 9.89263 38.2735 8.64168 37.5838 7.76376C36.8978 6.89062 35.6483 6.74113 34.7758 7.41425L34.7743 7.4154L25.465 14.6536L25.4643 14.6542C24.0649 15.7462 22.0351 15.4626 20.9924 14.0236L20.9913 14.0221C20.0054 12.6724 20.2553 10.7792 21.5579 9.7274L21.5585 9.72693L30.6325 2.37699C30.6327 2.37685 30.6329 2.37671 30.633 2.37657C32.1381 1.16371 34.0148 0.5 35.9437 0.5C37.5552 0.5 39.1396 0.960591 40.4928 1.82741L40.7618 1.40746L40.4928 1.82741L47.2989 6.18711L47.2991 6.18721L47.5 6.31603V22.5621ZM0.5 27.0026V6.50058H8.5V27.0026C8.5 28.386 7.38319 29.5029 6 29.5029H3C1.61681 29.5029 0.5 28.386 0.5 27.0026ZM2.5 25.5025C2.5 26.6036 3.39881 27.5026 4.5 27.5026C5.60119 27.5026 6.5 26.6036 6.5 25.5025C6.5 24.4013 5.60119 23.5023 4.5 23.5023C3.39881 23.5023 2.5 24.4013 2.5 25.5025ZM51.5 27.0026V6.50058H59.5V27.0026C59.5 28.386 58.3832 29.5029 57 29.5029H54C52.6168 29.5029 51.5 28.386 51.5 27.0026ZM55.5 27.5026C56.6012 27.5026 57.5 26.6036 57.5 25.5025C57.5 24.4013 56.6012 23.5023 55.5 23.5023C54.3988 23.5023 53.5 24.4013 53.5 25.5025C53.5 26.6036 54.3988 27.5026 55.5 27.5026Z" fill="#F3F3F3" stroke="#F3F3F3"/>
</svg>
