<svg width="41" height="37" viewBox="0 0 41 37" fill="none" xmlns="http://www.w3.org/2000/svg">
<path d="M29.725 1.18085e-07C27.9142 -0.000260006 26.1301 0.429247 24.5241 1.25206C22.9181 2.07487 21.5377 3.26668 20.5 4.72632C19.4623 3.26668 18.0819 2.07487 16.4759 1.25206C14.8699 0.429247 13.0858 -0.000260006 11.275 1.18085e-07C8.28468 1.18085e-07 5.41684 1.1684 3.30237 3.24816C1.1879 5.32793 0 8.14869 0 11.0899C0 22.6214 13.325 32.1366 20.5 37C27.675 32.1366 41 22.6214 41 11.0899C41 9.63357 40.7084 8.19148 40.1417 6.84599C39.5751 5.5005 38.7446 4.27796 37.6976 3.24816C36.6507 2.21837 35.4077 1.40149 34.0398 0.84417C32.6718 0.286849 31.2057 1.18085e-07 29.725 1.18085e-07Z" fill="#018390"/>
</svg>
