<svg width="60" height="36" viewBox="0 0 60 36" fill="none" xmlns="http://www.w3.org/2000/svg">
<path d="M30.3187 1.98769L21.2438 9.3384C19.7344 10.5573 19.4438 12.7512 20.5875 14.317C21.7969 15.9859 24.15 16.3141 25.7719 15.0483L35.0813 7.81013C35.7375 7.30383 36.675 7.41634 37.1906 8.07265C37.7063 8.72896 37.5844 9.66656 36.9281 10.1822L34.9688 11.7011L48 23.7023V6.00058H47.9344L47.5687 5.76618L40.7625 1.40639C39.3281 0.487547 37.65 0 35.9437 0C33.9 0 31.9125 0.703192 30.3187 1.98769ZM32.4563 13.6513L27.6094 17.4204C24.6562 19.7269 20.3719 19.1268 18.1594 16.089C16.0781 13.2294 16.6031 9.23526 19.35 7.01317L27.15 0.703193C26.0625 0.243773 24.8906 0.00937576 23.7 0.00937576C21.9375 -1.43205e-07 20.2219 0.525051 18.75 1.50014L12 6.00058V27.0026H14.6437L23.2125 34.8221C25.05 36.5004 27.8906 36.3691 29.5687 34.5314C30.0844 33.9595 30.4312 33.2938 30.6094 32.6L32.2031 34.0626C34.0312 35.7409 36.8812 35.619 38.5594 33.7907C38.9812 33.3313 39.2906 32.7969 39.4875 32.2437C41.3063 33.4626 43.7812 33.2094 45.3094 31.5405C46.9875 29.7122 46.8656 26.862 45.0375 25.1837L32.4563 13.6513ZM9 6.00058H0V27.0026C0 28.6621 1.34062 30.0029 3 30.0029H6C7.65938 30.0029 9 28.6621 9 27.0026V6.00058ZM4.5 27.0026C3.675 27.0026 3 26.3275 3 25.5025C3 24.6774 3.675 24.0023 4.5 24.0023C5.325 24.0023 6 24.6774 6 25.5025C6 26.3275 5.325 27.0026 4.5 27.0026ZM51 6.00058V27.0026C51 28.6621 52.3406 30.0029 54 30.0029H57C58.6594 30.0029 60 28.6621 60 27.0026V6.00058H51ZM57 25.5025C57 26.3275 56.325 27.0026 55.5 27.0026C54.675 27.0026 54 26.3275 54 25.5025C54 24.6774 54.675 24.0023 55.5 24.0023C56.325 24.0023 57 24.6774 57 25.5025Z" fill="#018390"/>
</svg>
